# xmcd
#
# Track frame offsets: 
#        150
#        10941
#        26127
#        41690
#        51857
#        64389
#        83868
#        94202
#        109002
#        126482
#        141458
#        154364
#
# Disc length: 2353 seconds
#
# Revision: 0
# Processed by: cddbd v1.5.2PL0 Copyright (c) Steve Scherf et al.
# Submitted via: ExactAudioCopy v0.95b3
#
DISCID=b0092f0c
DTITLE=The Rolling Stones  - Between the Buttons (UK MONO) (1967) [FLA
DTITLE=C] {16-44.1 - UK Decca Vinyl)  FLAC
DYEAR=1900
DGENRE=
TTITLE0=Yesterday's Papers
TTITLE1=My Obsession
TTITLE2=Back Street Girl
TTITLE3=Connection
TTITLE4=She Smiled Sweetly
TTITLE5=Cool, Calm And Collected
TTITLE6=All Sold Out
TTITLE7=Please Go Home
TTITLE8=Who's Been Sleeping Here
TTITLE9=Complicated
TTITLE10=Miss Amanda Jones
TTITLE11=Something Happened To Me Yesterday
EXTD=
EXTT0=
EXTT1=
EXTT2=
EXTT3=
EXTT4=
EXTT5=
EXTT6=
EXTT7=
EXTT8=
EXTT9=
EXTT10=
EXTT11=
PLAYORDER=
